<svg xmlns="http://www.w3.org/2000/svg" width="256" height="256" viewBox="0 0 512 512" version="1.1"><path d="M 91.477 229 C 91.477 273.825, 91.600 292.163, 91.750 269.750 C 91.900 247.338, 91.900 210.663, 91.750 188.250 C 91.600 165.838, 91.477 184.175, 91.477 229 M 33.475 272 C 33.475 313.525, 33.599 330.513, 33.750 309.750 C 33.901 288.988, 33.901 255.013, 33.750 234.250 C 33.599 213.488, 33.475 230.475, 33.475 272" stroke="none" fill="#448cf4" fill-rule="evenodd"/><path d="M 61 26 C 60.175 26.533, 57.193 26.976, 54.372 26.985 C 51.067 26.995, 48.806 27.529, 48.009 28.489 C 47.329 29.308, 46.459 29.784, 46.074 29.546 C 45.125 28.959, 40 33.449, 40 34.866 C 40 35.490, 39.550 36, 39 36 C 38.450 36, 38 36.810, 38 37.800 C 38 38.790, 37.578 40.028, 37.062 40.550 C 31.530 46.154, 31.743 448.132, 37.286 463.968 C 41.102 474.869, 28.142 474, 186.922 474 C 291.879 474, 330.298 473.696, 332.929 472.845 C 334.893 472.210, 338.408 470.860, 340.739 469.845 C 343.071 468.830, 345.828 468, 346.867 468 C 347.905 468, 349.303 467.339, 349.973 466.532 C 350.644 465.725, 351.486 465.139, 351.846 465.230 C 353.093 465.547, 357.509 463.756, 359.250 462.227 C 360.212 461.382, 361 461.040, 361 461.467 C 361 461.895, 361.675 461.685, 362.500 461 C 363.325 460.315, 364 460.066, 364 460.446 C 364 460.825, 365.307 460.206, 366.904 459.068 C 368.502 457.931, 370.109 457, 370.476 457 C 370.843 457, 371.822 456.321, 372.652 455.491 C 373.482 454.661, 374.575 454.237, 375.081 454.550 C 375.586 454.862, 376 454.641, 376 454.059 C 376 453.477, 376.470 453, 377.045 453 C 378.179 453, 391.176 444.393, 394.617 441.364 C 395.781 440.339, 398.243 438.375, 400.089 437 C 403.522 434.441, 425.378 413, 424.553 413 C 424.301 413, 426.324 410.639, 429.048 407.753 C 431.772 404.867, 434 401.942, 434 401.253 C 434 400.564, 434.450 400, 435 400 C 435.550 400, 435.887 399.654, 435.750 399.231 C 435.612 398.808, 436.512 397.373, 437.750 396.042 C 438.987 394.712, 440 393.070, 440 392.395 C 440 391.719, 440.364 391.017, 440.809 390.833 C 441.837 390.410, 448.376 378.967, 448.657 377.100 C 448.772 376.330, 449.234 375.430, 449.684 375.100 C 450.812 374.271, 453 370.248, 453 369.003 C 453 368.439, 453.945 365.846, 455.100 363.239 C 456.254 360.633, 457.551 357.600, 457.980 356.500 C 461.192 348.271, 461.932 346.146, 462.509 343.500 C 462.869 341.850, 463.181 340.275, 463.202 340 C 463.223 339.725, 463.701 338.375, 464.265 337 C 465.486 334.021, 466.874 326.570, 467.607 319.056 C 467.898 316.062, 468.556 312.829, 469.069 311.872 C 470.360 309.459, 470.279 270.679, 468.979 269.379 C 468.418 268.818, 467.923 265.466, 467.878 261.929 C 467.834 258.393, 467.370 254.977, 466.849 254.337 C 466.327 253.698, 465.721 251.448, 465.501 249.337 C 464.865 243.219, 463.825 238.596, 462.792 237.298 C 462.265 236.637, 461.713 235.062, 461.564 233.798 C 461.178 230.523, 456.650 217.565, 455.752 217.167 C 455.338 216.983, 455 216.013, 455 215.011 C 455 214.009, 454.153 211.459, 453.118 209.345 C 452.083 207.230, 450.212 203.363, 448.961 200.750 C 447.710 198.137, 446.231 196, 445.676 196 C 445.121 196, 444.953 195.713, 445.304 195.363 C 445.654 195.012, 445.054 193.480, 443.970 191.959 C 442.887 190.437, 442 188.904, 442 188.554 C 442 188.203, 441.100 186.950, 440 185.770 C 438.900 184.589, 438 183.033, 438 182.311 C 438 181.590, 437.527 181, 436.949 181 C 436.371 181, 435.262 179.479, 434.486 177.620 C 433.709 175.760, 431.732 173.111, 430.092 171.731 C 428.452 170.351, 427.364 168.969, 427.674 168.660 C 428.970 167.363, 395.650 136, 392.976 136 C 392.256 136, 391.964 135.702, 392.328 135.339 C 393.050 134.617, 386.759 130, 385.053 130 C 384.474 130, 384 129.587, 384 129.082 C 384 128.173, 377.152 123.517, 375.800 123.506 C 375.415 123.503, 374.537 122.938, 373.850 122.250 C 373.163 121.563, 372.015 121, 371.300 121 C 370.585 121, 370 120.550, 370 120 C 370 119.450, 369.325 119, 368.500 119 C 367.675 119, 367 118.550, 367 118 C 367 117.450, 366.545 117, 365.988 117 C 365.090 117, 352.316 111.338, 347.764 108.922 C 346.809 108.415, 345.196 108, 344.180 108 C 343.164 108, 342.022 107.688, 341.641 107.308 C 341.260 106.927, 339.983 106.468, 338.803 106.288 C 337.623 106.108, 336.085 105.485, 335.385 104.905 C 330.512 100.860, 317 106.452, 317 112.513 C 317 113.698, 316.663 115.004, 316.250 115.417 C 315.838 115.829, 315.452 117.367, 315.394 118.833 C 314.118 151, 314.982 160.758, 319.128 160.968 C 319.473 160.986, 321.384 161.680, 323.373 162.511 C 325.363 163.343, 327.224 164.007, 327.509 163.987 C 327.794 163.967, 330.062 165.087, 332.549 166.476 C 335.036 167.864, 337.524 169, 338.077 169 C 338.631 169, 339.934 169.788, 340.974 170.750 C 342.014 171.713, 344.583 173.375, 346.683 174.443 C 350.795 176.537, 361.287 184.020, 361.833 185.250 C 362.017 185.662, 362.599 186, 363.127 186 C 364.368 186, 378.164 200.666, 382.882 207 C 384.316 208.925, 385.910 210.802, 386.424 211.170 C 386.938 211.539, 387.479 212.655, 387.625 213.652 C 387.771 214.648, 388.366 215.622, 388.946 215.815 C 389.525 216.008, 390 216.649, 390 217.239 C 390 217.829, 391.148 219.816, 392.551 221.656 C 393.954 223.495, 394.741 225.007, 394.301 225.015 C 393.860 225.024, 394.092 225.406, 394.816 225.865 C 395.541 226.325, 396.260 227.330, 396.415 228.100 C 396.811 230.062, 397.838 232.679, 400.605 238.777 C 401.922 241.680, 403 244.492, 403 245.027 C 403 245.562, 403.450 246, 404 246 C 404.550 246, 405 247.323, 405 248.941 C 405 250.559, 405.450 252.160, 406 252.500 C 406.550 252.840, 407 254.576, 407 256.359 C 407 258.142, 407.406 260.028, 407.902 260.550 C 410.931 263.740, 412.684 305.841, 409.860 307.587 C 409.387 307.879, 409 310.315, 409 313 C 409 315.685, 408.606 318.125, 408.125 318.423 C 407.644 318.720, 407.250 319.984, 407.250 321.232 C 407.249 326.913, 394.592 356.924, 390.900 360 C 390.570 360.275, 389.712 361.625, 388.994 363 C 387.342 366.164, 381.371 373.661, 377.644 377.250 C 376.074 378.762, 375.034 380, 375.334 380 C 375.635 380, 373.327 382.363, 370.206 385.250 C 367.085 388.137, 363.400 391.691, 362.016 393.147 C 360.632 394.603, 356.350 397.947, 352.500 400.577 C 348.650 403.208, 345.275 405.617, 345 405.932 C 344.725 406.246, 343.150 407.177, 341.500 408 C 339.850 408.823, 338.275 409.723, 338 410 C 337.725 410.277, 336.150 411.120, 334.500 411.873 C 332.850 412.627, 330.375 413.823, 329 414.531 C 327.625 415.239, 326.050 415.916, 325.500 416.036 C 323.876 416.391, 322.696 416.756, 319 418.044 C 316.745 418.831, 306.430 419.415, 290 419.687 C 275.975 419.919, 263.600 420.543, 262.500 421.073 C 261.251 421.675, 228.597 421.936, 175.500 421.769 L 90.500 421.500 90.240 368.500 C 90.097 339.350, 90.236 314.832, 90.548 314.017 C 90.861 313.201, 91.073 284.626, 91.021 250.517 C 90.741 68.910, 85.070 84, 153.599 84 C 193.376 84, 215.099 84.351, 215.500 85 C 215.840 85.550, 217.428 86, 219.029 86 C 221.774 86, 227.324 88.528, 230.592 91.267 C 235.664 95.517, 239.866 99.932, 241.521 102.750 C 242.572 104.537, 243.811 106, 244.275 106 C 244.738 106, 244.890 106.370, 244.610 106.822 C 244.331 107.274, 244.760 108.910, 245.563 110.458 C 254.284 127.268, 235.454 164, 218.117 164 C 217.017 164, 215.840 164.450, 215.500 165 C 215.160 165.550, 212.460 166, 209.500 166 C 206.540 166, 203.840 166.450, 203.500 167 C 203.160 167.550, 199.785 168, 196 168 C 192.215 168, 188.840 168.450, 188.500 169 C 188.160 169.550, 185.460 170, 182.500 170 C 179.540 170, 176.840 170.450, 176.500 171 C 176.160 171.550, 174.894 172, 173.687 172 C 169.865 172, 150.835 179.620, 149 181.886 C 148.725 182.225, 147.150 183.177, 145.500 184.002 C 141.887 185.806, 126.315 201.433, 125.467 204.105 C 125.136 205.147, 124.536 206, 124.134 206 C 123.731 206, 122.832 207.575, 122.136 209.500 C 121.440 211.425, 120.375 213, 119.769 213 C 119.163 213, 118.955 213.288, 119.307 213.640 C 119.659 213.992, 119.341 215.455, 118.599 216.890 C 116.545 220.866, 114.165 229.141, 114.109 232.500 C 114.081 234.150, 113.762 237.075, 113.399 239 C 111.212 250.608, 112.450 268.496, 116.005 276.673 C 117.003 278.969, 117.560 281.106, 117.243 281.423 C 116.926 281.741, 117.108 282, 117.647 282 C 118.186 282, 119.245 283.575, 120 285.500 C 120.755 287.425, 121.739 289, 122.187 289 C 122.634 289, 123.008 289.563, 123.018 290.250 C 123.047 292.251, 134.494 306.173, 135.381 305.286 C 135.721 304.945, 136 305.184, 136 305.817 C 136 308.775, 238.079 413, 240.976 413 C 243.044 413, 279.951 375.768, 279.977 373.656 C 280 371.834, 277.128 368.807, 234 325.186 C 215.949 306.928, 190.221 280.176, 182.500 271.634 C 179.811 268.660, 174.836 262.123, 172.721 258.785 C 168.787 252.579, 172.906 233, 178.145 233 C 178.680 233, 178.840 232.550, 178.500 232 C 178.160 231.450, 178.532 231, 179.327 231 C 180.121 231, 182.004 230.361, 183.510 229.579 C 185.016 228.798, 186.822 228.378, 187.523 228.647 C 188.224 228.916, 189.095 228.656, 189.458 228.068 C 189.821 227.481, 192.116 227, 194.559 227 C 197.002 227, 199 226.634, 199 226.187 C 199 225.740, 201.137 225.289, 203.750 225.186 C 211.120 224.894, 229.062 221.800, 237.500 219.365 C 242.586 217.898, 245.911 216.607, 249.500 214.708 C 250.600 214.126, 253.975 212.357, 257 210.776 C 260.025 209.196, 263 207.250, 263.610 206.452 C 264.221 205.653, 265.186 205, 265.755 205 C 267.440 205, 282 190.815, 282 189.174 C 282 188.345, 282.294 187.961, 282.654 188.321 C 283.014 188.681, 284.687 187.068, 286.372 184.737 C 288.057 182.407, 289.712 180.275, 290.048 180 C 290.385 179.725, 291.297 178.037, 292.074 176.250 C 292.852 174.463, 293.828 173, 294.244 173 C 294.660 173, 295 172.100, 295 171 C 295 169.900, 295.450 169, 296 169 C 296.550 169, 297 168.190, 297 167.200 C 297 166.210, 297.394 164.973, 297.877 164.450 C 303.475 158.382, 308.768 116.236, 305.075 107.125 C 304.490 105.681, 303.790 102.702, 303.520 100.505 C 303.250 98.307, 302.598 96.366, 302.071 96.190 C 301.544 96.015, 301.351 95.248, 301.643 94.487 C 301.935 93.726, 301.396 91.618, 300.444 89.802 C 297.358 83.911, 297 83.050, 297 81.514 C 297 80.681, 296.550 80, 296 80 C 295.450 80, 295 79.410, 295 78.689 C 295 77.967, 294.082 76.392, 292.961 75.189 C 291.840 73.985, 291.216 73, 291.576 73 C 292.320 73, 289.901 69.135, 286.678 65.173 C 282.117 59.567, 265.834 44, 264.531 44 C 263.781 44, 263.017 43.663, 262.833 43.250 C 261.908 41.168, 239.641 30.082, 234.899 29.342 C 233.030 29.051, 231.050 28.464, 230.500 28.040 C 229.950 27.615, 226.808 27.192, 223.517 27.101 C 220.226 27.009, 217.099 26.499, 216.567 25.967 C 215.251 24.651, 63.037 24.683, 61 26" stroke="none" fill="#4484f4" fill-rule="evenodd"/></svg>