<?xml version="1.0" encoding="utf-8"?>

<!-- Uploaded to: SVG Repo, www.svgrepo.com, Generator: SVG Repo Mixer Tools -->
<svg version="1.1" id="Icons" xmlns="http://www.w3.org/2000/svg" xmlns:xlink="http://www.w3.org/1999/xlink" 
	height="24" 
	viewBox="0 0 32 32" xml:space="preserve">
<style type="text/css">
	.st0{fill:#FFFFFF;}
	.st32{fill:none;stroke:#FFFFFF;stroke-width:2;stroke-miterlimit:10;}
	.st33{fill:#576ee0;}
</style>
<path class="st33" d="M23,0H9C4,0,0,4,0,9v14c0,5,4,9,9,9h14c5,0,9-4,9-9V9C32,4,28,0,23,0z"/>
<path class="st0" d="M12,25c0,0.6-0.4,1-1,1H7c-0.6,0-1-0.4-1-1V13c0-0.6,0.4-1,1-1h4c0.6,0,1,0.4,1,1V25z M9,11c-1.7,0-3-1.3-3-3
	s1.3-3,3-3s3,1.3,3,3S10.7,11,9,11z M26,25c0,0.6-0.4,1-1,1h-3c-0.6,0-1-0.4-1-1v-3.5v-1v-2c0-0.8-0.7-1.5-1.5-1.5S18,17.7,18,18.5
	v2v1V25c0,0.6-0.4,1-1,1h-3c-0.6,0-1-0.4-1-1V13c0-0.6,0.4-1,1-1h4c0.3,0,0.5,0.1,0.7,0.3c0.6-0.2,1.2-0.3,1.8-0.3
	c3,0,5.5,2.5,5.5,5.5V25z"/>
</svg>